<?xml version="1.0" standalone="yes"?>
<svg xmlns="http://www.w3.org/2000/svg" width="226" height="225">
<path style="fill:#11110e; stroke:none;" d="M158 62C155.747 62.6862 153.188 62.8402 151.018 63.7392C146.169 65.7474 144.144 72.7122 149.228 75.821C151.228 77.0435 153.745 76.9647 156 76.9961C161.885 77.0783 173.854 79.1845 178.297 74.4861C182.286 70.2684 181.002 62.2792 181 57C180.998 53.0066 181.747 46.7402 178.436 43.7431C170.636 36.6818 169 50.5442 169 55C160.689 47.3676 150.716 40.8016 140 37.0795C131.324 34.0658 121.235 31.7487 112 32.0432C96.9941 32.5218 81.8676 36.6259 69 44.4637C34.5978 65.4187 21.3756 109.917 35.2292 147C52.1833 192.382 107.862 212.646 150 189.138C171.304 177.253 186.499 155.942 191.196 132C192.44 125.661 194.868 116.325 192.397 110.044C190.249 104.586 183.751 104.621 181.6 110.019C179.796 114.544 180.313 120.234 179.561 125C178.258 133.26 175.634 141.677 171.561 149C151.863 184.416 105.864 198.544 72 173.841C34.4432 146.444 32.4559 91.4352 68 61.591C74.5273 56.1105 81.9422 51.5759 90 48.6983C106.271 42.8877 124.336 44.1997 140 51.3125C146.424 54.2297 151.735 58.8833 158 62M107.059 60.7616C100.22 63.3046 103 78.2311 103 84L103 107C103 110.866 102.387 115.432 104.179 118.999C107.637 125.882 116.578 131.578 122 137C125.948 140.948 133.054 151.227 139.775 148.392C145.598 145.936 142.97 139.336 139.941 136C135.221 130.802 130.022 125.921 125 121.015C122.421 118.495 118.912 116.138 117.179 112.91C115.072 108.985 116 103.303 116 99C116 89.3695 116.447 79.6178 115.96 70C115.721 65.2798 113.133 58.5027 107.059 60.7616M56.054 110.89C49.7876 112.478 52.8204 122.365 58.7724 120.199C63.875 118.342 61.4733 109.517 56.054 110.89M110.228 167.801C104.679 169.823 108.451 179.396 113.856 176.863C119.113 174.4 115.7 165.807 110.228 167.801z"/>
</svg>
